<?xml version="1.0" encoding="utf-8"?>
<!-- Generator: Adobe Illustrator 16.0.0, SVG Export Plug-In . SVG Version: 6.00 Build 0)  -->
<!DOCTYPE svg PUBLIC "-//W3C//DTD SVG 1.1//EN" "http://www.w3.org/Graphics/SVG/1.1/DTD/svg11.dtd">
<svg version="1.1" id="Layer_1" xmlns="http://www.w3.org/2000/svg" xmlns:xlink="http://www.w3.org/1999/xlink" x="0px" y="0px"
	 width="200px" height="200px" viewBox="0 0 200 200" enable-background="new 0 0 200 200" xml:space="preserve">
<path d="M116.504,26.775V8.438H3.863v183.125h18.338v-32.031c0.483-0.408,1.001-0.816,1.563-1.219
	c8.842-5.879,10.768-10.527,11.125-12.807c1.277,2.311,3.406,7.566-0.662,12.002c-0.117,0.131-0.144,0.326-0.061,0.482
	c0.084,0.158,0.252,0.246,0.426,0.223c0.182-0.02,17.801-2.443,19.742-17.504c1.693,3.123,5.383,12.684-6.181,22.287
	c-4.571,4.375-3.165,10.412-3.105,10.666c0.05,0.197,0.224,0.328,0.425,0.32c0.191-0.002,0.363-0.148,0.398-0.348
	c0.08-0.396,1.904-9.564,10.452-9.986c-1.495,1.719-4.917,6.152-4.358,10.061c0.5,3.512,0.02,8.475-2.842,11.852
	c-2.016,2.373-4.927,3.633-8.662,3.715c-0.219,0.012-0.388,0.164-0.413,0.379c-0.026,0.211,0.118,0.404,0.327,0.457
	c7.941,1.879,19.262,2.871,28.127-3.076c6.539-4.381,10.684-11.904,12.328-22.369c3.498-29.172,14.748-32.295,14.863-32.324
	c0.19-0.049,0.322-0.225,0.324-0.426c-0.015-0.199-0.16-0.365-0.355-0.4c-0.191-0.029-18.531-2.932-24.991,11.68
	c-1.792-6.064-9.124-36.043,15.683-50.716c0.153-0.086,0.234-0.267,0.195-0.441c-0.029-0.18-0.174-0.313-0.346-0.335
	c-0.311-0.05-7.673-1.154-16.207,2.288c-7.863,3.162-18.17,10.972-22.576,30.166c-2.646,8.675-10.062,12.464-13.621,13.821
	c1.578-1.477,4.036-4.1,6.061-7.613c2.951-5.146,5.418-13.238,0.416-22.531c-0.077-0.142-0.236-0.235-0.402-0.217
	c-0.175,0.013-0.313,0.124-0.367,0.287c-0.055,0.152-5.316,15.215-14.201,18.216c-1.002,0.338-2.045,0.746-3.104,1.219V26.775
	h75.965v52.239h27.062V54.419l54.75,54.75l-54.75,54.749v-26.631H98.166v54.275h7.335h11.003h79.633V26.775H116.504z"/>
</svg>
