<?xml version="1.0" encoding="utf-8"?>
<!-- Generator: Adobe Illustrator 16.0.0, SVG Export Plug-In . SVG Version: 6.00 Build 0)  -->
<!DOCTYPE svg PUBLIC "-//W3C//DTD SVG 1.1//EN" "http://www.w3.org/Graphics/SVG/1.1/DTD/svg11.dtd">
<svg version="1.1" id="Layer_1" xmlns="http://www.w3.org/2000/svg" xmlns:xlink="http://www.w3.org/1999/xlink" x="0px" y="0px"
	 width="200px" height="200px" viewBox="0 0 200 200" enable-background="new 0 0 200 200" xml:space="preserve">
<path d="M19.644,0.8v118.046C19.644,163.225,100,199.2,100,199.2s80.356-35.976,80.356-80.354V0.8H19.644z M143.517,132.544
	c-5.154,11.3-16.975,17.221-25.988,20.202c-0.238,0.074-0.5-0.03-0.603-0.255c-0.106-0.226-0.031-0.479,0.177-0.626
	c3.651-2.36,5.768-5.383,6.317-8.965c0.775-5.088-1.776-10.298-4.415-13.474c-2.936-3.53-2.25-10.01-1.815-12.623
	c-8.211,5.631-4.428,15.825-4.265,16.268c0.087,0.219,0.006,0.467-0.184,0.587c-0.194,0.132-0.446,0.106-0.616-0.059
	c-0.214-0.215-5.288-5.338-3.428-12.458c5.598-16.569-3.889-23.79-7.47-25.852c7.261,16.104-8.714,29.252-8.884,29.382
	c-0.158,0.128-0.377,0.144-0.558,0.039c-0.179-0.104-0.271-0.312-0.233-0.514c1.325-6.876-3.989-10.786-6.664-12.294
	c1.036,2.475,1.964,8.256-3.211,19.471c-5.438,13.008,1.878,19.41,8.969,22.482c0.223,0.104,0.343,0.364,0.271,0.608
	c-0.076,0.234-0.314,0.382-0.56,0.335c-3.744-0.703-7.131-1.53-10.672-2.621c-13.809-4.925-22.164-12.373-24.839-22.13
	c-3.191-11.672,2.703-24.27,8.725-31.507c6.972-8.391,2.998-26.521,2.959-26.705c-0.046-0.195,0.023-0.39,0.188-0.51
	c0.153-0.119,0.368-0.125,0.532-0.029c10.622,6.154,13.112,15.676,13.326,22.573c0.139,4.716-0.697,8.814-1.359,11.238
	c2.698-3.515,7.733-11.792,5.065-21.999c-7.342-21.702-1.894-35.727,3.968-43.653c6.354-8.615,14.32-12.011,14.659-12.151
	c0.185-0.084,0.41-0.039,0.548,0.121c0.146,0.148,0.175,0.377,0.074,0.557c-15.624,29.665,9.92,54.893,15.396,59.807
	c-2.512-18.415,17.428-26.727,17.637-26.811c0.213-0.085,0.459-0.01,0.595,0.179c0.122,0.2,0.097,0.454-0.062,0.618
	c-0.096,0.1-9.337,10.055,4.988,41.089C146.839,114.234,147.323,124.217,143.517,132.544z"/>
</svg>
