<?xml version="1.0" encoding="utf-8"?>
<!-- Generator: Adobe Illustrator 16.0.0, SVG Export Plug-In . SVG Version: 6.00 Build 0)  -->
<!DOCTYPE svg PUBLIC "-//W3C//DTD SVG 1.1//EN" "http://www.w3.org/Graphics/SVG/1.1/DTD/svg11.dtd">
<svg version="1.1" id="Layer_1" xmlns="http://www.w3.org/2000/svg" xmlns:xlink="http://www.w3.org/1999/xlink" x="0px" y="0px"
	 width="200px" height="200px" viewBox="0 0 200 200" enable-background="new 0 0 200 200" xml:space="preserve">
<g>
	<path d="M-162.666,199.186c-54.777,0-99.186-44.407-99.186-99.186c0-54.776,44.408-99.184,99.186-99.184
		c54.778,0,99.185,44.408,99.185,99.184C-63.481,154.778-107.888,199.186-162.666,199.186 M-162.666,180.763
		c44.606,0,80.769-36.162,80.769-80.77c0-44.608-36.163-80.771-80.769-80.771c-44.608,0-80.771,36.163-80.771,80.771
		C-243.437,144.601-207.274,180.763-162.666,180.763"/>
	<path d="M-211.053,46.807h18.291v58.929c0,3.75,1.147,6.977,6.357,6.977c4.794,0,6.254-4.165,6.254-7.496V46.807h18.292v56.534
		c0,13.226-5.924,23.438-24.649,23.438c-15.503,0-24.544-7.398-24.544-23.438V46.807"/>
	<polyline points="-154.66,153.206 -154.66,75.052 -136.368,75.052 -136.368,137.55 -113.973,137.55 -113.973,153.206 
		-154.66,153.206 	"/>
	<path d="M-188.748,137.434h1.897c0.908,0,2.547,0.049,2.579,2.138c0.032,2.121-1.719,2.218-2.352,2.233h-2.124V137.434
		 M-188.748,143.026h2.351c1.59,0,2.076,1.035,2.076,2.25c0,0.81,0.13,2.315,0.422,3.092h1.571v-0.273
		c-0.324,0-0.422-0.535-0.47-0.764c-0.13-0.904-0.211-1.796-0.259-2.702c-0.195-1.62-0.583-2.124-2.156-2.271v-0.032
		c1.411-0.194,2.285-1.217,2.333-2.643c0.082-2.804-1.539-3.47-4.085-3.47h-3.131v12.154h1.347V143.026"/>
	<path d="M-197.531,142.291c0,6.122,4.981,11.103,11.104,11.103c6.122,0,11.103-4.98,11.103-11.103s-4.981-11.104-11.103-11.104
		C-192.549,131.187-197.531,136.169-197.531,142.291L-197.531,142.291z M-196.364,142.291c0-5.48,4.457-9.937,9.937-9.937
		c5.479,0,9.936,4.456,9.936,9.937c0,5.479-4.457,9.935-9.936,9.935C-191.907,152.226-196.364,147.77-196.364,142.291
		L-196.364,142.291z"/>
</g>
<g>
	<path d="M-20.908,368.764c-10.073-21.82-3.574-28.819-3.508-28.89c0.111-0.115,0.129-0.294,0.042-0.435
		c-0.095-0.133-0.267-0.186-0.417-0.126c-0.147,0.06-14.167,5.903-12.401,18.852c-3.849-3.456-21.811-21.193-10.823-42.052
		c0.07-0.126,0.049-0.287-0.053-0.392c-0.098-0.112-0.256-0.144-0.385-0.085c-0.238,0.099-5.841,2.486-10.308,8.544
		c-4.121,5.574-7.952,15.435-2.791,30.693c1.876,7.178-1.664,12.997-3.561,15.469c0.466-1.705,1.054-4.587,0.956-7.902
		c-0.15-4.85-1.901-11.544-9.37-15.872c-0.115-0.066-0.266-0.062-0.375,0.021c-0.116,0.084-0.165,0.221-0.133,0.357
		c0.028,0.129,2.822,12.878-2.08,18.777c-4.233,5.088-8.379,13.946-6.134,22.153c1.88,6.859,7.755,12.098,17.465,15.561
		c2.489,0.767,4.871,1.348,7.503,1.842c0.172,0.034,0.34-0.07,0.393-0.235c0.052-0.171-0.032-0.354-0.189-0.427
		c-4.986-2.16-10.129-6.663-6.306-15.809c3.638-7.886,2.987-11.95,2.258-13.69c1.88,1.061,5.616,3.81,4.685,8.645
		c-0.024,0.141,0.039,0.287,0.165,0.36c0.126,0.074,0.28,0.063,0.393-0.027c0.118-0.091,11.351-9.335,6.246-20.658
		c2.518,1.449,9.188,6.526,5.252,18.176c-1.31,5.007,2.259,8.609,2.409,8.76c0.119,0.116,0.298,0.134,0.434,0.042
		c0.134-0.084,0.189-0.259,0.13-0.413c-0.115-0.312-2.776-7.479,2.997-11.438c-0.305,1.838-0.787,6.394,1.278,8.876
		c1.855,2.233,3.648,5.896,3.103,9.475c-0.386,2.518-1.874,4.643-4.44,6.303c-0.146,0.102-0.199,0.28-0.126,0.44
		c0.073,0.158,0.256,0.231,0.424,0.179c6.338-2.097,14.649-6.26,18.273-14.205C-17.227,383.777-17.567,376.758-20.908,368.764z"/>
</g>
<path d="M-107,297v83c0,31.204,56.5,56.5,56.5,56.5S6,411.204,6,380v-83H-107z"/>
<path d="M19.644,0v118.046C19.644,162.425,100,198.4,100,198.4s80.356-35.976,80.356-80.354V0H19.644z M143.517,131.744
	c-5.154,11.3-16.975,17.221-25.988,20.202c-0.238,0.074-0.5-0.03-0.603-0.255c-0.106-0.226-0.031-0.479,0.177-0.626
	c3.651-2.36,5.768-5.383,6.317-8.965c0.775-5.088-1.776-10.298-4.415-13.474c-2.936-3.53-2.25-10.01-1.815-12.623
	c-8.211,5.631-4.428,15.825-4.265,16.268c0.087,0.219,0.006,0.467-0.184,0.587c-0.194,0.132-0.446,0.106-0.616-0.059
	c-0.214-0.215-5.288-5.338-3.428-12.458c5.598-16.569-3.889-23.79-7.47-25.851c7.261,16.104-8.714,29.251-8.884,29.381
	c-0.158,0.128-0.377,0.144-0.558,0.039c-0.179-0.104-0.271-0.312-0.233-0.514c1.325-6.876-3.989-10.786-6.664-12.294
	c1.036,2.475,1.964,8.256-3.211,19.471c-5.438,13.008,1.878,19.41,8.969,22.482c0.223,0.104,0.343,0.364,0.271,0.608
	c-0.076,0.234-0.314,0.382-0.56,0.335c-3.744-0.703-7.131-1.53-10.672-2.621c-13.809-4.925-22.164-12.373-24.839-22.13
	c-3.191-11.672,2.703-24.27,8.725-31.507c6.972-8.39,2.998-26.521,2.959-26.705c-0.046-0.195,0.023-0.389,0.188-0.509
	c0.153-0.12,0.368-0.125,0.532-0.03c10.622,6.155,13.112,15.676,13.326,22.574c0.139,4.715-0.697,8.814-1.359,11.238
	c2.698-3.514,7.733-11.792,5.065-21.999c-7.342-21.702-1.894-35.726,3.968-43.653c6.354-8.615,14.32-12.011,14.659-12.151
	c0.185-0.083,0.41-0.039,0.548,0.121c0.146,0.148,0.175,0.378,0.074,0.557c-15.624,29.665,9.92,54.892,15.396,59.807
	c-2.512-18.416,17.428-26.727,17.637-26.812c0.213-0.084,0.459-0.01,0.595,0.179c0.122,0.2,0.097,0.455-0.062,0.619
	c-0.096,0.1-9.337,10.054,4.988,41.088C146.839,113.435,147.323,123.417,143.517,131.744z"/>
</svg>
