<?xml version="1.0" encoding="utf-8"?>
<!-- Generator: Adobe Illustrator 16.0.0, SVG Export Plug-In . SVG Version: 6.00 Build 0)  -->
<!DOCTYPE svg PUBLIC "-//W3C//DTD SVG 1.1//EN" "http://www.w3.org/Graphics/SVG/1.1/DTD/svg11.dtd">
<svg version="1.1" id="Layer_1" xmlns="http://www.w3.org/2000/svg" xmlns:xlink="http://www.w3.org/1999/xlink" x="0px" y="0px"
	 width="200px" height="200px" viewBox="0 0 200 200" enable-background="new 0 0 200 200" xml:space="preserve">
<g>
	<rect x="123.616" y="52.107" transform="matrix(-0.7071 0.7071 -0.7071 -0.7071 322.524 -5.3786)" width="77.519" height="24"/>
	<polygon points="80.572,128.94 63.183,146.329 18.702,101.85 1.731,118.82 63.183,180.271 97.543,145.911 	"/>
</g>
<g>
	<path d="M102.979,41.636c-14.269-14.269-39.568-12.104-56.507,4.835c-16.94,16.94-19.104,42.239-4.835,56.509
		c10.451,10.448,26.813,12.072,41.48,5.547l60.474,60.475H169v-25.414l-7.761-7.762h-12.462v-12.461l-4.844-4.843h-12.459V106.06
		l-4.845-4.842h-12.46v-12.46l-5.641-5.641C115.056,68.451,113.431,52.085,102.979,41.636z M51.33,51.328
		c4.514-4.512,11.829-4.513,16.343,0c4.512,4.514,4.512,11.83,0,16.344c-4.514,4.511-11.829,4.511-16.343,0
		C46.817,63.158,46.817,55.842,51.33,51.328z"/>
</g>
</svg>
