<?xml version="1.0" encoding="utf-8"?>
<!-- Generator: Adobe Illustrator 16.0.0, SVG Export Plug-In . SVG Version: 6.00 Build 0)  -->
<!DOCTYPE svg PUBLIC "-//W3C//DTD SVG 1.1//EN" "http://www.w3.org/Graphics/SVG/1.1/DTD/svg11.dtd">
<svg version="1.1" id="Layer_1" xmlns="http://www.w3.org/2000/svg" xmlns:xlink="http://www.w3.org/1999/xlink" x="0px" y="0px"
	 width="200px" height="200px" viewBox="0 0 200 200" enable-background="new 0 0 200 200" xml:space="preserve">
<g>
	<path d="M100,199.185c-54.777,0-99.186-44.407-99.186-99.186C0.814,45.223,45.223,0.815,100,0.815s99.186,44.407,99.186,99.184
		C199.186,154.777,154.777,199.185,100,199.185 M100,180.763c44.605,0,80.77-36.163,80.77-80.77
		c0-44.608-36.164-80.771-80.77-80.771c-44.608,0-80.771,36.163-80.771,80.771C19.229,144.6,55.392,180.763,100,180.763"/>
	<path d="M51.613,46.807h18.291v58.928c0,3.75,1.147,6.977,6.357,6.977c4.794,0,6.254-4.164,6.254-7.496V46.807h18.292v56.533
		c0,13.227-5.924,23.438-24.649,23.438c-15.503,0-24.544-7.398-24.544-23.438V46.807"/>
	<polyline points="108.006,153.205 108.006,75.052 126.299,75.052 126.299,137.549 148.693,137.549 148.693,153.205 
		108.006,153.205 	"/>
</g>
</svg>
