<?xml version="1.0" encoding="utf-8"?>
<!-- Generator: Adobe Illustrator 16.0.0, SVG Export Plug-In . SVG Version: 6.00 Build 0)  -->
<!DOCTYPE svg PUBLIC "-//W3C//DTD SVG 1.1//EN" "http://www.w3.org/Graphics/SVG/1.1/DTD/svg11.dtd">
<svg version="1.1" id="Layer_1" xmlns="http://www.w3.org/2000/svg" xmlns:xlink="http://www.w3.org/1999/xlink" x="0px" y="0px"
	 width="200px" height="200px" viewBox="0 0 200 200" enable-background="new 0 0 200 200" xml:space="preserve">
<path d="M100,199.186c-54.777,0-99.186-44.407-99.186-99.186C0.815,45.223,45.223,0.815,100,0.815
	c54.778,0,99.185,44.408,99.185,99.184C199.186,154.778,154.778,199.186,100,199.186 M100,180.763
	c44.606,0,80.769-36.162,80.769-80.77c0-44.608-36.163-80.771-80.769-80.771c-44.608,0-80.771,36.163-80.771,80.771
	C19.229,144.601,55.393,180.763,100,180.763"/>
<path d="M51.613,46.807h18.291v58.929c0,3.75,1.147,6.977,6.357,6.977c4.794,0,6.254-4.165,6.254-7.496V46.807h18.292v56.534
	c0,13.226-5.924,23.438-24.649,23.438c-15.503,0-24.544-7.398-24.544-23.438V46.807"/>
<polyline points="108.007,153.206 108.007,75.052 126.299,75.052 126.299,137.55 148.693,137.55 148.693,153.206 108.007,153.206 
	"/>
<path d="M-117.202,137.435h1.897c0.908,0,2.547,0.049,2.579,2.138c0.032,2.121-1.719,2.218-2.352,2.233h-2.124V137.435
	 M-117.202,143.027h2.351c1.59,0,2.076,1.035,2.076,2.25c0,0.81,0.13,2.315,0.422,3.092h1.571v-0.273
	c-0.324,0-0.422-0.535-0.47-0.764c-0.13-0.904-0.211-1.796-0.259-2.702c-0.195-1.62-0.583-2.124-2.156-2.271v-0.032
	c1.411-0.194,2.285-1.217,2.333-2.643c0.082-2.804-1.539-3.47-4.085-3.47h-3.131v12.154h1.347V143.027"/>
<path d="M-125.985,142.292c0,6.122,4.981,11.103,11.104,11.103c6.122,0,11.103-4.98,11.103-11.103s-4.981-11.104-11.103-11.104
	C-121.003,131.188-125.985,136.17-125.985,142.292L-125.985,142.292z M-124.818,142.292c0-5.48,4.457-9.937,9.937-9.937
	c5.479,0,9.936,4.456,9.936,9.937c0,5.479-4.457,9.935-9.936,9.935C-120.361,152.227-124.818,147.771-124.818,142.292
	L-124.818,142.292z"/>
</svg>
